<svg xmlns="http://www.w3.org/2000/svg"  viewBox="0 0 128 128" width="64px" height="64px"><path fill="#fff" d="M64 14A50 50 0 1 0 64 114A50 50 0 1 0 64 14Z"/><path fill="#444b54" d="M64,117c-29.2,0-53-23.8-53-53s23.8-53,53-53s53,23.8,53,53S93.2,117,64,117z M64,17c-25.9,0-47,21.1-47,47 s21.1,47,47,47s47-21.1,47-47S89.9,17,64,17z"/><path fill="#71c2ff" d="M89,67H64c-1.7,0-3-1.3-3-3V29c0-1.7,1.3-3,3-3s3,1.3,3,3v32h22c1.7,0,3,1.3,3,3S90.7,67,89,67z"/><path fill="#fff" d="M64 57A7 7 0 1 0 64 71A7 7 0 1 0 64 57Z"/><path fill="#71c2ff" d="M64,74c-5.5,0-10-4.5-10-10s4.5-10,10-10s10,4.5,10,10S69.5,74,64,74z M64,60c-2.2,0-4,1.8-4,4s1.8,4,4,4 s4-1.8,4-4S66.2,60,64,60z"/></svg>